# xmcd
#
# Track frame offsets:
#	150
#	16142
#	34707
#	50702
#	63160
#	78295
#	95530
#	114105
#	133677
#	148060
#	159845
#	182960
#	204157
#	219540
#	233235
#	254022
#	274057
#
# Disc length: 4059 seconds
# Revision: 5
# Processed by: cddbd v1.5.2PL0 Copyright (c) Steve Scherf et al.
# Submitted via: dBpowerAMP V12.0
#
DISCID=e90fd911
DTITLE=Johnny Winter - The Johnny Winter Collection
DYEAR=1970
DGENRE=Blues*
TTITLE0=Rock And Roll Hoochie Koo
TTITLE1=Cheap Tequila
TTITLE2=On The Limb
TTITLE3=Slippin' And Slidin'
TTITLE4=Johnny B. Goode (Live Version)
TTITLE5=Rock Me Baby
TTITLE6=Let It Bleed
TTITLE7=Stray Cat Blues
TTITLE8=Roit In Cell Block 9
TTITLE9=Bony Moronie
TTITLE10=Highway 61 Revisited
TTITLE11=Raised On Rock
TTITLE12=Pick Up On My Mojo
TTITLE13=Thirty Days
TTITLE14=Good Morning Little Schoolgirl
TTITLE15=Jumpin' Jack Flash
TTITLE16=Medley (Live Version)
EXTD=
EXTT0=
EXTT1=
EXTT2=
EXTT3=
EXTT4=
EXTT5=
EXTT6=
EXTT7=
EXTT8=
EXTT9=
EXTT10=
EXTT11=
EXTT12=
EXTT13=
EXTT14=
EXTT15=
EXTT16=
PLAYORDER=
